<?xml version="1.0" standalone="no"?>
<!DOCTYPE svg PUBLIC "-//W3C//DTD SVG 20010904//EN"
 "http://www.w3.org/TR/2001/REC-SVG-20010904/DTD/svg10.dtd">
<svg version="1.0" xmlns="http://www.w3.org/2000/svg"
 width="639.000000pt" height="639.000000pt" viewBox="0 0 639.000000 639.000000"
 preserveAspectRatio="xMidYMid meet">
<metadata>
Created by potrace 1.11, written by Peter Selinger 2001-2013
</metadata>
<g transform="translate(0.000000,639.000000) scale(0.100000,-0.100000)"
fill="#000000" stroke="none">
<path d="M4067 5435 c-110 -29 -185 -117 -194 -228 -21 -255 256 -475 534
-425 50 9 126 55 158 96 119 149 50 368 -157 498 -98 62 -239 87 -341 59z"/>
<path d="M4913 5401 c-121 -34 -84 -227 75 -394 50 -52 92 -84 182 -139 62
-38 149 -53 194 -34 57 24 74 84 49 171 -62 210 -351 439 -500 396z"/>
<path d="M3106 5154 c-205 -53 -359 -228 -371 -421 -11 -189 99 -340 283 -387
164 -42 377 49 478 204 32 48 63 113 71 145 10 42 11 145 2 187 -45 201 -256
325 -463 272z"/>
<path d="M5581 5052 c-41 -76 204 -471 351 -566 26 -17 27 -17 38 3 11 21 8
46 -16 119 -51 156 -233 412 -320 448 -42 18 -41 18 -53 -4z"/>
<path d="M2070 4588 c-114 -20 -268 -135 -339 -252 -176 -293 -70 -625 201
-627 35 -1 70 1 78 3 113 32 204 96 280 196 48 64 102 182 116 253 3 19 6 71
6 117 -1 72 -5 92 -31 145 -44 91 -86 132 -161 155 -52 16 -100 19 -150 10z"/>
<path d="M4874 4536 c-162 -72 -210 -318 -104 -532 102 -207 339 -275 482
-139 70 65 100 189 76 315 -25 134 -139 293 -247 343 -61 28 -159 34 -207 13z"/>
<path d="M5559 4484 c-66 -42 -64 -202 3 -344 124 -260 355 -333 351 -110 -6
247 -229 534 -354 454z"/>
<path d="M3980 4266 c-238 -61 -391 -333 -335 -597 81 -393 533 -457 739 -105
105 180 88 409 -43 573 -84 107 -236 161 -361 129z"/>
<path d="M6029 4148 c-10 -86 -6 -121 31 -245 23 -77 81 -217 110 -266 58 -98
70 4 26 229 -17 86 -72 215 -111 262 -27 33 -54 42 -56 20z"/>
<path d="M1100 3923 c-243 -82 -366 -467 -215 -674 65 -91 180 -113 279 -55
206 121 283 527 130 682 -39 40 -48 44 -134 59 -8 2 -35 -4 -60 -12z"/>
<path d="M2789 3696 c-204 -83 -337 -283 -345 -516 -4 -111 6 -162 46 -245 93
-194 298 -278 485 -198 110 47 204 137 263 251 119 230 89 491 -72 640 -39 36
-62 49 -137 80 -47 19 -180 12 -240 -12z"/>
<path d="M5545 3633 c-89 -23 -162 -151 -170 -300 -9 -170 76 -303 195 -305
49 0 119 40 162 92 96 119 83 340 -26 456 -52 54 -101 72 -161 57z"/>
<path d="M5962 3617 c-37 -40 -47 -144 -22 -240 26 -95 92 -167 141 -152 89
29 49 348 -51 400 -38 20 -43 19 -68 -8z"/>
<path d="M424 3431 c-37 -23 -68 -70 -93 -145 -47 -135 15 -350 112 -391 17
-7 38 -11 46 -10 9 2 21 4 26 4 18 2 73 56 90 89 23 47 42 157 39 226 -9 182
-115 291 -220 227z"/>
<path d="M4812 3310 c-178 -42 -323 -265 -323 -494 0 -39 5 -85 11 -101 6 -17
11 -31 11 -32 -2 -17 39 -83 70 -114 134 -132 369 -55 502 163 53 88 72 156
71 258 -3 224 -154 365 -342 320z"/>
<path d="M83 3273 c-35 -54 -13 -241 39 -330 16 -27 26 -33 46 -31 78 9 57
303 -25 368 -33 26 -39 25 -60 -7z"/>
<path d="M1704 3095 c-221 -66 -344 -329 -275 -585 31 -114 132 -239 229 -283
66 -30 178 -29 244 3 120 56 214 193 233 338 7 55 8 179 2 190 -4 5 -9 24 -12
42 -9 54 -57 140 -107 195 -83 92 -208 131 -314 100z"/>
<path d="M7 2953 c-9 -16 1 -169 18 -247 28 -133 93 -282 119 -273 35 12 -6
222 -86 432 -31 83 -42 103 -51 88z"/>
<path d="M3780 2738 c-85 -15 -183 -72 -255 -150 -206 -223 -217 -554 -21
-685 220 -149 549 9 661 317 86 238 -28 482 -241 516 -64 10 -97 11 -144 2z"/>
<path d="M801 2682 c-173 -88 -147 -434 45 -612 89 -82 191 -102 262 -51 103
73 116 301 27 477 -82 162 -225 242 -334 186z"/>
<path d="M260 2630 c-21 -21 -24 -36 -22 -108 4 -101 84 -304 150 -378 56 -63
115 -77 144 -35 73 107 -73 480 -207 531 -36 14 -42 13 -65 -10z"/>
<path d="M205 2140 c-22 -36 77 -278 172 -419 36 -54 122 -141 138 -141 68 0
-81 318 -242 517 -36 44 -59 58 -68 43z"/>
<path d="M2569 2124 c-68 -14 -83 -20 -144 -57 -64 -39 -133 -121 -164 -195
-21 -47 -25 -74 -25 -152 -1 -88 2 -101 31 -161 50 -101 166 -194 269 -216 55
-12 214 -6 214 8 0 3 6 6 14 6 22 0 76 25 76 35 0 5 4 7 9 4 4 -3 36 20 70 51
57 52 106 125 117 177 16 74 19 108 12 163 -27 228 -251 385 -479 337z"/>
<path d="M666 1761 c-77 -85 68 -353 265 -490 25 -18 55 -33 67 -34 12 -1 22
-5 22 -10 0 -17 93 0 108 19 19 26 10 114 -19 179 -91 208 -368 419 -443 336z"/>
<path d="M1475 1761 c-123 -31 -188 -138 -161 -269 13 -65 83 -192 105 -192 8
0 12 -3 8 -6 -6 -6 71 -84 84 -84 4 0 14 -6 21 -13 7 -7 42 -26 78 -42 50 -23
82 -30 139 -31 93 -3 153 23 197 87 27 39 29 49 29 133 0 85 -3 96 -35 156
-58 107 -157 195 -268 239 -56 22 -153 33 -197 22z"/>
</g>
</svg>
