<?xml version="1.0" standalone="no"?>
<!DOCTYPE svg PUBLIC "-//W3C//DTD SVG 20010904//EN"
 "http://www.w3.org/TR/2001/REC-SVG-20010904/DTD/svg10.dtd">
<svg version="1.0" xmlns="http://www.w3.org/2000/svg"
 width="1754.000000pt" height="1754.000000pt" viewBox="0 0 1754.000000 1754.000000"
 preserveAspectRatio="xMidYMid meet">
<metadata>
Created by potrace 1.11, written by Peter Selinger 2001-2013
</metadata>
<g transform="translate(0.000000,1754.000000) scale(0.100000,-0.100000)"
fill="#000000" stroke="none">
<path d="M11410 14889 c-120 -14 -143 -18 -224 -45 -333 -111 -537 -386 -534
-721 3 -318 173 -629 463 -847 233 -175 475 -259 745 -261 146 0 206 8 315 42
209 65 376 202 464 379 63 126 81 214 77 369 -3 109 -14 185 -36 240 -4 11
-20 51 -34 90 -126 321 -449 602 -817 708 -97 29 -127 34 -224 43 -118 10
-128 10 -195 3z"/>
<path d="M13548 14703 c-62 -24 -95 -50 -123 -98 -176 -303 292 -998 880
-1305 343 -180 613 -159 676 52 11 36 13 144 3 193 -17 90 -82 242 -157 365
-86 140 -264 338 -422 467 -112 91 -118 96 -270 191 -46 29 -188 92 -261 117
-105 36 -257 44 -326 18z"/>
<path d="M8730 14084 c-95 -15 -97 -16 -160 -33 -122 -33 -295 -113 -412 -191
-72 -48 -234 -185 -268 -226 -8 -11 -39 -47 -68 -82 -139 -168 -252 -414 -279
-609 -15 -106 -8 -331 11 -407 55 -210 185 -402 352 -518 96 -67 265 -137 371
-153 21 -3 50 -8 63 -10 14 -3 77 -6 140 -6 347 -2 696 144 963 404 286 278
433 612 421 962 -1 55 -5 111 -8 125 -3 14 -8 36 -11 49 -41 209 -180 417
-361 541 -92 64 -253 131 -349 146 -22 3 -44 8 -48 11 -20 12 -277 10 -357 -3z"/>
<path d="M15408 13840 c-94 -56 7 -411 225 -790 96 -167 244 -387 323 -480
201 -237 326 -345 423 -365 115 -24 130 127 39 380 -77 214 -316 639 -455 810
-5 6 -24 30 -43 55 -56 73 -161 191 -223 249 -137 129 -231 174 -289 141z"/>
<path d="M5858 12535 c-2 -1 -34 -5 -73 -9 -316 -28 -673 -242 -930 -557 -57
-71 -155 -227 -201 -324 -236 -491 -206 -1006 78 -1306 77 -81 206 -169 283
-192 131 -39 207 -51 300 -50 585 8 1173 525 1349 1187 14 50 28 116 31 146 4
30 9 64 11 75 6 27 6 254 1 263 -3 4 -7 30 -11 57 -8 69 -48 200 -81 266 -117
230 -312 381 -555 428 -50 10 -196 21 -202 16z"/>
<path d="M13522 12429 c-176 -45 -314 -148 -415 -310 -101 -162 -149 -346
-148 -564 0 -99 2 -124 22 -240 95 -557 550 -1029 999 -1037 429 -7 737 359
740 877 2 388 -178 806 -449 1042 -25 21 -53 46 -63 56 -10 9 -20 17 -22 17
-3 0 -33 19 -67 42 -179 118 -413 164 -597 117z"/>
<path d="M15345 12299 c-128 -63 -188 -209 -181 -439 6 -168 38 -308 118 -504
22 -54 56 -125 74 -158 19 -33 34 -62 34 -64 0 -10 115 -172 156 -220 90 -106
194 -197 279 -244 155 -87 304 -82 392 11 69 74 103 176 108 328 3 82 -1 132
-20 241 -29 168 -112 380 -216 554 -136 230 -303 398 -475 478 -88 41 -206 48
-269 17z"/>
<path d="M11150 11633 c-228 -27 -407 -96 -578 -222 -300 -222 -502 -569 -557
-955 -13 -87 -13 -361 -1 -416 3 -14 10 -45 15 -70 82 -397 332 -714 671 -849
173 -68 376 -85 580 -46 72 13 218 68 298 111 300 164 525 444 647 809 75 222
83 576 20 805 -58 206 -170 404 -302 532 -88 85 -80 78 -153 129 -124 86 -275
145 -420 165 -45 6 -187 11 -220 7z"/>
<path d="M16698 11358 c-39 -30 -48 -83 -44 -242 5 -169 7 -183 42 -351 81
-395 228 -768 359 -913 87 -97 145 -40 149 144 2 80 -15 244 -35 349 -6 33
-13 71 -15 85 -17 93 -113 420 -149 505 -113 269 -183 384 -252 420 -34 18
-35 18 -55 3z"/>
<path d="M3097 10705 c-204 -51 -414 -226 -574 -480 -56 -89 -152 -308 -168
-385 -2 -8 -8 -27 -14 -42 -6 -16 -9 -28 -6 -28 2 0 -1 -15 -6 -32 -5 -18 -12
-53 -15 -78 -3 -25 -8 -53 -11 -63 -2 -10 -6 -75 -8 -145 -18 -766 550 -1086
1063 -598 40 39 90 93 110 120 20 28 39 53 42 56 17 14 104 166 138 240 98
213 142 406 147 634 6 343 -103 605 -308 741 -101 67 -260 92 -390 60z"/>
<path d="M7925 10140 c-144 -25 -230 -52 -350 -110 -290 -139 -522 -367 -684
-671 -83 -157 -145 -333 -167 -479 -3 -19 -7 -40 -9 -47 -6 -19 -19 -181 -19
-248 0 -217 47 -430 136 -610 36 -73 71 -135 90 -160 94 -124 177 -209 273
-277 71 -50 220 -128 247 -128 8 0 18 -4 23 -9 23 -22 220 -52 335 -51 123 0
134 1 226 20 120 24 319 99 365 137 8 7 19 13 23 13 11 0 86 51 161 109 264
206 469 519 560 855 13 50 27 105 30 121 2 17 7 41 10 55 17 88 23 305 11 415
-49 431 -277 783 -621 963 -61 32 -212 85 -275 97 -58 11 -312 14 -365 5z"/>
<path d="M15335 9945 c-72 -17 -112 -36 -181 -88 -163 -121 -286 -357 -329
-632 -14 -87 -14 -302 0 -370 3 -16 8 -43 11 -60 13 -63 57 -183 91 -245 75
-138 145 -205 286 -272 56 -27 186 -26 262 2 115 42 250 161 324 287 147 249
195 588 124 883 -8 36 -19 69 -24 75 -5 5 -9 17 -9 26 0 25 -72 161 -111 211
-125 157 -281 222 -444 183z"/>
<path d="M16505 9946 c-109 -46 -176 -195 -180 -402 -7 -344 143 -684 328
-739 132 -39 233 68 271 286 14 79 15 272 2 316 -3 10 -7 36 -11 58 -7 51 -61
209 -89 260 -93 174 -221 263 -321 221z"/>
<path d="M1260 9403 c-165 -42 -292 -216 -355 -488 -12 -52 -14 -65 -20 -132
-34 -342 70 -690 247 -835 76 -62 125 -82 203 -82 135 0 247 82 333 246 51 98
67 144 93 268 60 296 7 626 -135 838 -52 77 -93 118 -156 155 -39 22 -63 29
-140 42 -8 1 -40 -4 -70 -12z"/>
<path d="M13280 9086 c-365 -78 -704 -392 -854 -791 -32 -87 -75 -252 -83
-325 -9 -77 -9 -285 0 -349 51 -363 267 -648 564 -745 86 -28 103 -31 243 -30
165 1 250 21 393 94 375 191 642 592 702 1054 7 57 7 251 0 310 -10 89 -59
250 -99 333 -71 143 -148 237 -261 321 -76 56 -114 75 -212 108 -97 32 -289
42 -393 20z"/>
<path d="M288 8957 c-164 -152 -121 -768 68 -977 85 -93 169 -58 215 90 71
228 15 648 -110 820 -21 29 -67 79 -74 80 -59 12 -75 10 -99 -13z"/>
<path d="M4817 8520 c-82 -15 -188 -50 -257 -86 -86 -45 -94 -50 -170 -110
-352 -277 -544 -760 -499 -1259 18 -209 76 -409 161 -564 247 -449 677 -647
1103 -510 268 86 495 295 648 599 55 110 97 233 128 381 33 152 33 458 0 609
-102 477 -394 827 -771 924 -75 20 -273 29 -343 16z"/>
<path d="M19 8033 c-15 -18 -19 -161 -6 -268 44 -388 226 -993 334 -1109 49
-53 68 -24 68 104 0 174 -41 408 -130 735 -55 204 -167 482 -215 533 -25 26
-33 27 -51 5z"/>
<path d="M10560 7513 c-176 -20 -290 -53 -435 -124 -399 -197 -726 -624 -820
-1069 -8 -37 -17 -79 -20 -95 -4 -17 -8 -100 -10 -185 -3 -143 8 -265 32 -335
4 -11 8 -24 9 -30 7 -32 40 -118 67 -170 135 -269 381 -445 667 -479 61 -8
204 -9 235 -2 11 2 40 7 65 11 79 12 212 56 305 100 193 93 336 206 508 404
54 61 165 237 210 332 72 148 124 322 145 484 9 67 8 267 -1 333 -55 401 -306
706 -657 798 -83 22 -230 35 -300 27z"/>
<path d="M2307 7393 c-85 -19 -139 -47 -202 -105 -97 -88 -161 -205 -196 -358
-19 -78 -22 -122 -23 -250 -1 -191 19 -310 85 -498 157 -456 520 -790 833
-769 91 6 108 10 181 47 226 113 350 437 311 810 -54 529 -391 1020 -766 1116
-82 21 -153 23 -223 7z"/>
<path d="M780 7257 c-36 -18 -77 -84 -95 -152 -14 -55 -21 -237 -11 -305 2
-14 7 -45 11 -70 3 -25 18 -90 31 -145 86 -340 240 -642 419 -820 113 -113
198 -149 274 -118 116 46 158 296 97 583 -3 14 -8 39 -12 55 -36 181 -143 450
-249 625 -93 155 -215 290 -304 335 -55 27 -120 33 -161 12z"/>
<path d="M7179 5816 c-2 -2 -24 -6 -49 -9 -99 -12 -264 -64 -365 -114 -222
-111 -428 -316 -538 -538 -99 -200 -136 -470 -92 -672 3 -13 7 -33 10 -45 33
-152 137 -344 257 -474 22 -24 39 -44 37 -45 -4 -1 -32 -3 -244 -13 -77 -4
-160 -9 -185 -11 -45 -3 -198 -11 -365 -21 -49 -2 -108 -6 -131 -9 l-41 -4
-33 86 c-165 435 -596 793 -1050 871 -19 3 -93 6 -165 6 -146 1 -228 -18 -339
-77 -71 -38 -171 -134 -208 -199 -119 -213 -108 -478 33 -761 16 -33 28 -61
26 -63 -2 -3 -24 -5 -167 -20 -30 -3 -66 -7 -80 -9 -14 -2 -56 -6 -93 -10 -37
-3 -77 -8 -87 -10 -10 -2 -50 -7 -87 -10 -37 -4 -75 -8 -84 -11 -12 -3 -21 8
-33 47 -20 61 -113 247 -150 302 -14 21 -26 40 -26 43 0 2 -32 49 -72 104
-245 343 -569 626 -818 715 -25 8 -74 18 -110 21 -84 7 -143 -20 -174 -81 -27
-51 -28 -182 -2 -270 9 -33 18 -64 20 -70 1 -5 9 -26 18 -46 9 -20 19 -45 22
-56 13 -40 117 -226 176 -314 110 -163 184 -253 326 -397 56 -57 97 -105 90
-107 -6 -2 -63 -13 -126 -25 -266 -50 -504 -117 -628 -178 -225 -109 -136
-222 255 -321 79 -20 285 -62 368 -75 22 -4 51 -8 65 -11 14 -2 88 -13 165
-24 136 -20 182 -26 275 -36 25 -3 83 -10 130 -15 47 -5 108 -12 135 -15 28
-3 70 -7 95 -10 25 -3 72 -7 105 -10 33 -3 83 -7 110 -10 70 -6 168 -14 250
-20 39 -3 99 -7 135 -10 36 -3 97 -8 135 -10 39 -3 99 -7 135 -10 218 -15 639
-39 905 -50 72 -3 168 -8 215 -10 195 -9 592 -23 880 -30 124 -4 293 -8 375
-10 890 -24 2747 -24 3785 0 378 8 714 17 820 20 665 22 948 32 1095 40 39 2
142 7 230 10 88 3 187 8 220 10 33 2 121 7 195 10 74 3 162 8 195 10 33 2 114
7 180 10 66 4 140 8 165 10 25 1 99 6 165 10 66 3 140 8 165 10 25 1 90 6 145
10 55 3 127 8 160 10 33 3 96 7 140 10 44 3 105 8 135 10 30 3 89 7 130 10 41
3 100 7 130 10 30 2 84 7 120 10 36 3 90 7 120 10 30 3 83 7 118 10 34 2 86 7
115 10 28 3 72 7 97 10 25 3 74 7 110 10 36 3 81 7 100 10 19 2 64 7 100 10
36 3 81 8 100 10 19 2 60 7 90 10 30 4 69 8 85 10 17 2 57 6 90 10 33 3 94 10
135 15 41 6 93 12 115 14 22 3 74 10 115 16 41 6 93 13 115 15 22 3 51 7 65
10 14 3 43 7 65 10 32 4 221 34 380 61 102 17 299 60 410 89 432 112 551 225
348 332 -105 56 -351 126 -553 157 -19 3 -46 8 -60 11 -38 8 -211 34 -335 50
-167 23 -176 24 -235 30 -30 3 -66 8 -80 10 -14 2 -54 7 -90 10 -36 3 -81 8
-100 10 -33 4 -94 10 -205 20 -64 6 -181 16 -220 20 -16 2 -75 6 -130 10 -55
4 -117 8 -137 10 -20 2 -81 6 -135 10 -54 3 -125 7 -158 10 -86 6 -215 14
-330 20 -55 3 -131 8 -170 10 -429 26 -1171 53 -1940 70 -950 21 -2431 21
-3505 0 -312 -6 -792 -17 -857 -20 -35 -1 -63 1 -63 4 0 3 12 17 27 31 104 99
223 336 264 525 19 91 17 334 -4 424 -100 422 -420 730 -860 827 -62 14 -367
30 -378 20z"/>
<path d="M571 5772 c-40 -75 89 -413 289 -762 65 -112 202 -327 236 -369 7 -9
39 -50 72 -91 326 -413 380 -213 96 353 -56 111 -72 140 -118 217 -15 25 -29
53 -33 63 -3 9 -9 17 -14 17 -5 0 -9 5 -9 10 0 16 -148 236 -229 340 -151 194
-260 278 -290 222z"/>
</g>
</svg>
